<svg width="42" height="42" viewBox="0 0 42 42" fill="none" xmlns="http://www.w3.org/2000/svg">
<g filter="url(#filter0_i_373_4535)">
<path fill-rule="evenodd" clip-rule="evenodd" d="M0.200195 20.8944C0.200195 32.4116 9.57371 41.8 21.0909 41.8C32.6081 41.8 42.0002 32.4116 42.0001 20.8944C42.0001 9.3772 32.6081 0 21.0909 0C9.57379 0 0.200237 9.3772 0.200195 20.8944ZM21.1392 7.57222C22.1882 7.59266 23.022 8.45959 23.0015 9.50851V20.1079L30.0394 27.1457C30.7831 27.8894 30.7831 29.0954 30.0394 29.8391C29.2956 30.5829 28.0897 30.5829 27.3459 29.8391L19.759 22.2374C19.4014 21.8818 19.1999 21.3987 19.1989 20.8944V9.50851C19.1985 9.4887 19.1984 9.4689 19.1986 9.44913C19.211 8.4 20.0715 7.55963 21.1206 7.57197C21.1268 7.57201 21.133 7.57205 21.1392 7.57222Z" fill="#FF9939"/>
</g>
<defs>
<filter id="filter0_i_373_4535" x="0.200195" y="0" width="42.3" height="42.6998" filterUnits="userSpaceOnUse" color-interpolation-filters="sRGB">
<feFlood flood-opacity="0" result="BackgroundImageFix"/>
<feBlend mode="normal" in="SourceGraphic" in2="BackgroundImageFix" result="shape"/>
<feColorMatrix in="SourceAlpha" type="matrix" values="0 0 0 0 0 0 0 0 0 0 0 0 0 0 0 0 0 0 127 0" result="hardAlpha"/>
<feOffset dx="0.5" dy="0.9"/>
<feGaussianBlur stdDeviation="2.5"/>
<feComposite in2="hardAlpha" operator="arithmetic" k2="-1" k3="1"/>
<feColorMatrix type="matrix" values="0 0 0 0 0 0 0 0 0 0 0 0 0 0 0 0 0 0 0.2 0"/>
<feBlend mode="normal" in2="shape" result="effect1_innerShadow_373_4535"/>
</filter>
</defs>
</svg>
