<?xml version="1.0" standalone="no"?>
<!DOCTYPE svg PUBLIC "-//W3C//DTD SVG 20010904//EN"
 "http://www.w3.org/TR/2001/REC-SVG-20010904/DTD/svg10.dtd">
<svg version="1.0" xmlns="http://www.w3.org/2000/svg"
 width="128.000000pt" height="128.000000pt" viewBox="0 0 128.000000 128.000000"
 preserveAspectRatio="xMidYMid meet">
<g transform="translate(0.000000,128.000000) scale(0.100000,-0.100000)"
fill="#000000" stroke="none">
<path d="M295 891 c-117 -29 -205 -137 -205 -251 0 -133 127 -260 260 -260 61
0 130 31 182 80 50 48 55 50 108 50 53 0 58 -2 108 -50 52 -49 121 -80 182
-80 50 0 126 30 168 66 65 55 86 104 87 195 0 67 -3 81 -30 124 -40 64 -101
110 -165 124 -57 12 -646 14 -695 2z m83 -170 c3 -26 7 -31 31 -31 32 0 51
-16 51 -45 0 -29 -19 -45 -52 -45 -24 0 -28 -4 -28 -28 0 -35 -16 -52 -52 -52
-29 0 -48 23 -48 59 0 16 -6 21 -28 21 -33 0 -52 16 -52 45 0 29 19 45 52 45
23 0 28 4 28 23 0 73 91 81 98 8z"/>
</g>
</svg>
