<svg width="112" height="119" viewBox="0 0 112 119" fill="none" xmlns="http://www.w3.org/2000/svg">
<path fill-rule="evenodd" clip-rule="evenodd" d="M105.029 57.3772V27.0245C105.029 19.908 99.2256 14.1337 92.0547 14.1155H83.5164V11.1034C83.5247 4.97956 78.529 0.00832109 72.3581 6.39916e-06C71.4655 -0.000943851 70.5756 0.10394 69.7081 0.312876L12.6409 14.1155C5.60069 14.3128 -0.00269021 20.0349 9.68979e-07 27.0245V105.769C0.0183983 112.886 5.83681 118.645 13.0077 118.645H92.0547C99.2204 118.645 105.029 112.881 105.029 105.769V75.6153C109.001 75.1463 111.994 71.8064 112 67.8367V65.1557C111.994 61.1861 109.001 57.8462 105.029 57.3772ZM70.9088 5.17852C74.1808 4.37413 77.4904 6.35421 78.3012 9.6017C78.4236 10.0929 78.4841 10.5973 78.48 11.1034V14.1155H33.9202L70.9088 5.17852ZM99.9928 105.769C99.9745 110.113 96.4314 113.629 92.0547 113.647H12.8743C8.49037 113.647 4.93629 110.12 4.93629 105.769V27.0245C4.91789 22.6921 8.44203 19.1649 12.8076 19.1467H12.841H92.0547C96.439 19.1467 99.9928 22.6738 99.9928 27.0245V57.3109H88.3526C86.9658 57.3109 85.8361 58.4171 85.8177 59.7935V73.0335C85.8177 74.4227 86.9528 75.5491 88.3526 75.5491H99.9928V105.769ZM106.964 68.0023C106.945 69.5616 105.666 70.8158 104.095 70.8158H90.754V62.3091H104.095C105.679 62.3091 106.964 63.5834 106.964 65.1557V68.0023ZM57.2216 64.4623L65.9158 64.4751L54.8769 93.1852C54.47 94.2479 53.4454 94.9517 52.3 94.955L47.716 94.983C46.568 94.9887 45.536 94.2893 45.1234 93.2261L33.9198 64.4751H42.7684C43.0692 65.4178 43.7878 67.6246 44.6605 70.3048L44.6618 70.3085C46.6299 76.3526 49.3811 84.8013 49.8933 86.5903L57.2216 64.4623ZM72.4434 46.0951C72.8119 46.3916 72.944 46.8907 72.7703 47.3287L67.2069 61.189H32.6157L27.0037 47.0732C26.6248 46.0861 28.1297 45.3341 29.0082 45.9299L40.6479 52.7962L48.9244 39.3963C49.1269 39.1189 49.4501 38.9534 49.7952 38.9504C50.1405 38.9475 50.4667 39.107 50.6741 39.3808L59.3502 52.8524L71.1596 46.0322C71.5555 45.773 72.0751 45.7985 72.4434 46.0951Z" fill="#D9DAE4"/>
</svg>
