<svg width="172" height="180" viewBox="0 0 172 180" fill="none" xmlns="http://www.w3.org/2000/svg">
<g filter="url(#filter0_i_335_706)">
<path fill-rule="evenodd" clip-rule="evenodd" d="M72.7279 0C68.0004 0 64.2398 3.8231 64.2398 8.57145V20.3574C53.339 23.7175 43.545 29.5898 35.5001 37.299L25.2071 31.5403C21.081 29.222 15.9521 30.6771 13.6442 34.8214L1.07881 57.2548C-1.22906 61.3986 0.294824 66.6548 4.4207 68.9731L14.6468 74.7323C13.5989 79.6612 13.0428 84.7567 13.0428 89.9999C13.0428 95.2433 13.5989 100.339 14.6468 105.268L4.4207 111.027C0.294824 113.345 -1.22906 118.601 1.07881 122.745L13.6442 145.178C15.9521 149.323 21.081 150.778 25.2071 148.46L35.5001 142.701C43.545 150.41 53.339 156.283 64.2398 159.643V171.429C64.2398 176.177 68.0004 180 72.7279 180H98.3933C103.121 180 106.882 176.177 106.882 171.429V159.643C117.782 156.283 127.576 150.41 135.622 142.701L145.914 148.46C150.04 150.778 155.169 149.323 157.477 145.178L170.042 122.745C172.35 118.601 170.827 113.345 166.701 111.027L156.475 105.268C157.522 100.339 158.079 95.2433 158.079 89.9999C158.079 84.7567 157.522 79.6612 156.475 74.7323L166.701 68.9731C170.827 66.6548 172.35 61.3986 170.042 57.2548L157.477 34.8214C155.169 30.6771 150.04 29.222 145.914 31.5403L135.622 37.299C127.576 29.5898 117.782 23.7175 106.882 20.3574V8.57145C106.882 3.8231 103.121 0 98.3933 0H72.7279ZM85.5608 47.1428C109.185 47.1428 128.336 66.3302 128.336 89.9999C128.336 113.669 109.185 132.857 85.5608 132.857C61.9364 132.857 42.7851 113.669 42.7851 89.9999C42.7851 66.3302 61.9364 47.1428 85.5608 47.1428Z" fill="#696A93"/>
</g>
<defs>
<filter id="filter0_i_335_706" x="0" y="0" width="171.622" height="180.9" filterUnits="userSpaceOnUse" color-interpolation-filters="sRGB">
<feFlood flood-opacity="0" result="BackgroundImageFix"/>
<feBlend mode="normal" in="SourceGraphic" in2="BackgroundImageFix" result="shape"/>
<feColorMatrix in="SourceAlpha" type="matrix" values="0 0 0 0 0 0 0 0 0 0 0 0 0 0 0 0 0 0 127 0" result="hardAlpha"/>
<feOffset dx="0.5" dy="0.9"/>
<feGaussianBlur stdDeviation="5.5"/>
<feComposite in2="hardAlpha" operator="arithmetic" k2="-1" k3="1"/>
<feColorMatrix type="matrix" values="0 0 0 0 0 0 0 0 0 0 0 0 0 0 0 0 0 0 0.35 0"/>
<feBlend mode="normal" in2="shape" result="effect1_innerShadow_335_706"/>
</filter>
</defs>
</svg>
