<?xml version="1.0" encoding="utf-8"?>
<!-- Generator: Adobe Illustrator 19.0.0, SVG Export Plug-In . SVG Version: 6.00 Build 0)  -->
<svg version="1.1" id="Layer_1" xmlns="http://www.w3.org/2000/svg" xmlns:xlink="http://www.w3.org/1999/xlink" x="0px" y="0px"
	 viewBox="0 0 512 512" style="enable-background:new 0 0 512 512;" xml:space="preserve">
<style type="text/css">
	.st0{fill:#95A5A6;}
	.st1{fill:#BDC3C7;}
	.st2{fill:#ECF0F1;}
	.st3{fill:#7F8C8D;}
	.st4{fill:#27AE60;}
	.st5{fill:#F39C12;}
	.st6{fill:#2980B9;}
	.st7{fill:#C0392B;}
</style>
<g id="XMLID_1_">
	<path id="XMLID_3_" class="st0" d="M128.4,138.6c-15,0-30.7,2.4-44.1,6.3C34.7,162.3,0,213.5,0,266.2C0,317.4,33.9,368.6,84.3,386
		c20.5,8.7,45.7,8.7,67.7,8.7c41.7,0,67.7-44.9,104-42.5c36.2-2.4,62.2,42.5,104,42.5c22.1,0,47.3,0,67.7-8.7
		c49.6-17.3,84.3-68.5,84.3-119.7c0-53.6-33.9-104.8-84.3-121.3c-13.4-3.9-29.1-6.3-44.1-6.3H360H152h-16.5
		C135.5,138.6,128.4,138.6,128.4,138.6z"/>
	<path id="XMLID_4_" class="st1" d="M128.4,117.4c-15,0-30.7,2.4-44.1,6.3C34.7,141,0,192.2,0,245c0,51.2,33.9,102.4,84.3,119.7
		c20.5,8.7,45.7,8.7,67.7,8.7c41.7,0,67.7-44.9,104-42.5c36.2-2.4,62.2,42.5,104,42.5c22.1,0,47.3,0,67.7-8.7
		C477.3,347.4,512,296.2,512,245c0-53.6-33.9-104.8-84.3-121.3c-13.4-3.9-29.1-6.3-44.1-6.3H360H152h-16.5H128.4z"/>
	<circle id="XMLID_5_" class="st2" cx="128.4" cy="245" r="85.1"/>
	<path id="XMLID_6_" class="st3" d="M128.4,181.2c-11.8,0-21.3,8.7-21.3,21.3v21.3H85.9c-11.8,0-21.3,8.7-21.3,21.3
		c0,11,9.5,21.3,21.3,21.3h20.5v21.3c0,11,9.5,21.3,21.3,21.3s21.3-11,21.3-21.3v-21.3h21.3c11.8,0,21.3-11,21.3-21.3
		c0-12.6-9.5-21.3-21.3-21.3h-21.3v-21.3C149.7,189.8,139.4,181.2,128.4,181.2z"/>
	<circle id="XMLID_7_" class="st2" cx="383.6" cy="245" r="85.1"/>
	<circle id="XMLID_8_" class="st4" cx="341.1" cy="245" r="21.3"/>
	<circle id="XMLID_9_" class="st5" cx="383.6" cy="288.3" r="21.3"/>
	<circle id="XMLID_10_" class="st6" cx="383.6" cy="202.4" r="21.3"/>
	<circle id="XMLID_11_" class="st7" cx="426.9" cy="245" r="21.3"/>
	<path id="XMLID_12_" class="st3" d="M245,245c-5.5,0-11,4.7-11,11c0,6.3,4.7,11,11,11h21.3c5.5,0,11-4.7,11-11c0-6.3-4.7-11-11-11
		H245z"/>
</g>
</svg>
