<svg width="20" height="13" viewBox="0 0 20 13" fill="none" xmlns="http://www.w3.org/2000/svg">
<path d="M5.45455 7.8C6.96242 7.8 8.18182 6.63751 8.18182 5.2C8.18182 3.76249 6.96242 2.6 5.45455 2.6C3.94667 2.6 2.72727 3.76249 2.72727 5.2C2.72727 6.63751 3.94667 7.8 5.45455 7.8ZM5.45455 4.33333C5.95394 4.33333 6.36364 4.72391 6.36364 5.2C6.36364 5.67609 5.95394 6.06667 5.45455 6.06667C4.95515 6.06667 4.54545 5.67609 4.54545 5.2C4.54545 4.72391 4.95515 4.33333 5.45455 4.33333ZM16.3636 1.73333H9.09091V8.66667H1.81818V0H0V13H1.81818V10.4H18.1818V13H20V5.2C20 3.28409 18.3733 1.73333 16.3636 1.73333ZM18.1818 8.66667H10.9091V3.46667H16.3636C17.3648 3.46667 18.1818 4.24551 18.1818 5.2V8.66667Z" fill="#696A93"/>
</svg>
