<svg width="12" height="12" viewBox="0 0 12 12" fill="none" xmlns="http://www.w3.org/2000/svg">
<path fill-rule="evenodd" clip-rule="evenodd" d="M3.8694 0.0164795C2.99038 0.0164795 2.26393 0.742924 2.26393 1.62203C2.26393 1.80958 2.30251 1.98762 2.36309 2.15546H0.66156C0.364752 2.15434 0.123876 2.39524 0.125004 2.69199V4.29134C0.123876 4.58808 0.364752 4.82898 0.66156 4.82787H11.3499C11.6467 4.82898 11.8875 4.58808 11.8864 4.29134V2.69199C11.8875 2.39524 11.6467 2.15434 11.3499 2.15546H9.64835C9.70898 1.98756 9.74856 1.80965 9.74856 1.62203C9.74856 0.742924 9.02108 0.0164795 8.14204 0.0164795H7.07726C6.66656 0.0164795 6.29291 0.179464 6.0073 0.438219C5.72255 0.179272 5.3493 0.0164795 4.93836 0.0164795H3.8694ZM3.8694 1.08544H4.93836C5.24371 1.08544 5.47073 1.31664 5.47073 1.62203V2.15546H3.8694C3.56408 2.15546 3.33287 1.92736 3.33287 1.62203C3.33287 1.31664 3.56408 1.08544 3.8694 1.08544ZM8.1421 1.08547H7.07733C6.77201 1.08547 6.54076 1.31667 6.54076 1.62206V2.15548H8.1421C8.44742 2.15548 8.67865 1.92739 8.67865 1.62206C8.67865 1.31667 8.44742 1.08547 8.1421 1.08547Z" fill="#959595"/>
<path fill-rule="evenodd" clip-rule="evenodd" d="M1.19322 5.89682V11.2417C1.19209 11.5389 1.43363 11.78 1.73081 11.7783H4.40108V5.89682H1.19322Z" fill="#959595"/>
<path fill-rule="evenodd" clip-rule="evenodd" d="M5.47001 5.89682V11.7783H6.53998V5.89682H5.47001Z" fill="#959595"/>
<path fill-rule="evenodd" clip-rule="evenodd" d="M7.60895 5.89682V11.7783H10.2802C10.577 11.7794 10.8179 11.5385 10.8168 11.2417V5.89682H7.60895Z" fill="#959595"/>
</svg>
