<svg width="20" height="21" viewBox="0 0 20 21" fill="none" xmlns="http://www.w3.org/2000/svg">
<g filter="url(#filter0_i_513_1584)">
<path fill-rule="evenodd" clip-rule="evenodd" d="M8.52829 0.00765991C7.98599 0.00765991 7.5546 0.453362 7.5546 1.00693V2.38096C6.30415 2.77269 5.18067 3.45728 4.25782 4.35603L3.07709 3.68467C2.60379 3.41441 2.01544 3.58404 1.7507 4.0672L0.309299 6.68251C0.0445596 7.1656 0.219367 7.77838 0.692653 8.04865L1.8657 8.72007C1.7455 9.29469 1.68171 9.88873 1.68171 10.5C1.68171 11.1113 1.7455 11.7053 1.8657 12.2799L0.692653 12.9513C0.219367 13.2216 0.0445596 13.8344 0.309299 14.3175L1.7507 16.9328C2.01544 17.416 2.60379 17.5856 3.07709 17.3153L4.25782 16.644C5.18067 17.5427 6.30415 18.2274 7.5546 18.6191V19.9931C7.5546 20.5467 7.98599 20.9923 8.52829 20.9923H11.4724C12.0147 20.9923 12.4461 20.5467 12.4461 19.9931V18.6191C13.6965 18.2274 14.82 17.5427 15.7429 16.644L16.9236 17.3153C17.3969 17.5856 17.9853 17.416 18.25 16.9328L19.6914 14.3175C19.9562 13.8344 19.7814 13.2216 19.3081 12.9513L18.135 12.2799C18.2552 11.7053 18.3191 11.1113 18.3191 10.5C18.3191 9.88873 18.2552 9.29469 18.135 8.72007L19.3081 8.04865C19.7814 7.77838 19.9562 7.1656 19.6914 6.68251L18.25 4.0672C17.9853 3.58404 17.3969 3.41441 16.9236 3.68467L15.7429 4.35603C14.82 3.45728 13.6965 2.77269 12.4461 2.38096V1.00693C12.4461 0.453362 12.0147 0.00765991 11.4724 0.00765991H8.52829ZM10.0004 5.50364C12.7103 5.50364 14.9072 7.74054 14.9072 10.5C14.9072 13.2594 12.7103 15.4964 10.0004 15.4964C7.29038 15.4964 5.0935 13.2594 5.0935 10.5C5.0935 7.74054 7.29038 5.50364 10.0004 5.50364Z" fill="#696A93"/>
</g>
<defs>
<filter id="filter0_i_513_1584" x="0.185547" y="0.00765991" width="20.1299" height="21.8847" filterUnits="userSpaceOnUse" color-interpolation-filters="sRGB">
<feFlood flood-opacity="0" result="BackgroundImageFix"/>
<feBlend mode="normal" in="SourceGraphic" in2="BackgroundImageFix" result="shape"/>
<feColorMatrix in="SourceAlpha" type="matrix" values="0 0 0 0 0 0 0 0 0 0 0 0 0 0 0 0 0 0 127 0" result="hardAlpha"/>
<feOffset dx="0.5" dy="0.9"/>
<feGaussianBlur stdDeviation="5.5"/>
<feComposite in2="hardAlpha" operator="arithmetic" k2="-1" k3="1"/>
<feColorMatrix type="matrix" values="0 0 0 0 0 0 0 0 0 0 0 0 0 0 0 0 0 0 0.35 0"/>
<feBlend mode="normal" in2="shape" result="effect1_innerShadow_513_1584"/>
</filter>
</defs>
</svg>

