<svg width="181" height="181" viewBox="0 0 181 181" fill="none" xmlns="http://www.w3.org/2000/svg">
<path fill-rule="evenodd" clip-rule="evenodd" d="M7.44956 2.04673e-08C3.42291 2.04673e-08 0 3.42254 0 7.4492V155.229C0 157.041 0.603935 159.054 2.01342 160.464L20.3351 178.785C21.7442 180.194 23.7576 181 25.5698 181H173.35C177.577 181 181 177.577 181 173.349V7.4492C181 3.42254 177.577 2.04673e-08 173.35 2.04673e-08H7.44956ZM140.532 166.302C140.532 170.329 138.116 173.349 134.894 173.349H46.5085C43.0859 173.349 40.6698 170.329 40.6698 166.302V114.358C40.6698 110.533 43.0859 106.909 46.5085 106.909H134.894C138.317 106.909 140.532 110.533 140.532 114.358V166.302ZM147.981 69.2589C147.981 73.487 144.558 76.7081 140.532 76.7081H40.6698C36.8442 76.7081 33.2202 73.2854 33.2202 69.2589V21.1397C33.2202 16.9116 36.643 13.6905 40.6698 13.6905H140.532C144.558 13.6905 147.981 17.1133 147.981 21.1397V69.2589ZM74.6954 156.84V123.82H56.3738V157.041H74.6954V156.84Z" fill="#FF9939"/>
</svg>
