<svg width="12" height="12" viewBox="0 0 12 12" fill="none" xmlns="http://www.w3.org/2000/svg">
<path fill-rule="evenodd" clip-rule="evenodd" d="M5.99734 12C2.69097 12 -2.45561e-05 9.30472 1.68063e-10 5.99837C1.68063e-10 2.69202 2.69097 0 5.99734 0C9.30368 0 12 2.69202 12 5.99837C12 9.30472 9.30372 12 5.99734 12ZM6.54584 2.72969C6.55172 2.42855 6.31236 2.17971 6.01121 2.17379L6.00586 2.17373C5.70466 2.17017 5.45765 2.41143 5.4541 2.71264C5.45404 2.71831 5.45404 2.72403 5.45416 2.72969V5.99837C5.45448 6.14312 5.51231 6.28182 5.61497 6.38389L7.79302 8.5662C8.00656 8.77973 8.35274 8.77973 8.56628 8.5662C8.77979 8.35267 8.77979 8.00648 8.56628 7.79295L6.54584 5.77256V2.72969Z" fill="#959595"/>
</svg>
