<svg width="10" height="12" viewBox="0 0 10 12" fill="none" xmlns="http://www.w3.org/2000/svg">
<path fill-rule="evenodd" clip-rule="evenodd" d="M9.00016 1.19999H7.18814L6.30811 0.143995C6.23196 0.0525806 6.11909 -0.000182646 6.0001 4.75082e-07H3.60007C3.48109 -0.000182646 3.36821 0.0525806 3.29206 0.143995L2.41203 1.19999H0.600009C0.268628 1.19999 0 1.46861 0 1.79998V3.00002C0 3.3314 0.268628 3.60001 0.600009 3.60001H0.800025V11.2C0.800025 11.6419 1.15821 12 1.60002 12H8.00015C8.44196 12 8.80015 11.6419 8.80015 11.2V3.60001H9.00016C9.33152 3.60001 9.60017 3.3314 9.60017 3.00002V1.79998C9.60017 1.46861 9.33152 1.19999 9.00016 1.19999ZM3.78808 0.799971H5.8121L6.14612 1.19999H3.45407L3.78808 0.799971ZM3.40007 10C3.40007 10.2209 3.22097 10.4 3.00006 10.4C2.77912 10.4 2.60003 10.2209 2.60003 10V4.79999C2.60003 4.57908 2.77912 4.39997 3.00006 4.39997C3.22097 4.39997 3.40007 4.57908 3.40007 4.79999V10ZM5.2001 10C5.2001 10.2209 5.02098 10.4 4.80007 10.4C4.57917 10.4 4.40008 10.2209 4.40008 10V4.79999C4.40008 4.57908 4.57917 4.39997 4.80007 4.39997C5.02098 4.39997 5.2001 4.57908 5.2001 4.79999V10ZM7.00014 10C7.00014 10.2209 6.82102 10.4 6.60011 10.4C6.37921 10.4 6.20011 10.2209 6.20011 10V4.79999C6.20011 4.57908 6.37921 4.39997 6.60011 4.39997C6.82102 4.39997 7.00014 4.57908 7.00014 4.79999V10ZM8.80015 2.79998H0.800025V2.00001H8.80015V2.79998Z" fill="#959595"/>
</svg>
