<svg width="17" height="20" viewBox="0 0 17 20" fill="none" xmlns="http://www.w3.org/2000/svg">
<path d="M14.0781 19.1976C12.9863 20.253 11.7943 20.0864 10.6469 19.5864C9.43256 19.0754 8.31853 19.0532 7.0374 19.5864C5.4332 20.2752 4.58654 20.0752 3.62848 19.1976C-1.80798 13.6094 -1.00588 5.09936 5.16584 4.78828C6.66977 4.86605 7.71696 5.6104 8.59704 5.67706C9.9116 5.41043 11.1704 4.64386 12.5741 4.74385C14.2563 4.87716 15.5263 5.54374 16.3618 6.74359C12.8861 8.82111 13.7104 13.3872 16.8966 14.6648C16.2616 16.3313 15.4372 17.9866 14.0669 19.2087L14.0781 19.1976ZM8.48564 4.72163C8.31853 2.24416 10.3349 0.199975 12.6521 0C12.9752 2.8663 10.0453 4.99937 8.48564 4.72163Z" fill="white"/>
</svg>
