<svg width="13" height="12" viewBox="0 0 13 12" fill="none" xmlns="http://www.w3.org/2000/svg">
<path fill-rule="evenodd" clip-rule="evenodd" d="M11.8802 9.72136L8.16284 5.97692L11.8773 2.23036C12.3057 1.80001 12.3057 1.10795 11.8787 0.676224L11.5336 0.32766C11.3308 0.118224 11.0533 0.004224 10.7615 0.004224C10.7601 0.004224 10.7601 0.004224 10.7601 0.004224C10.4684 0.004224 10.1944 0.119664 9.98946 0.326964L6.27359 4.07492L2.55627 0.331236C2.13003 -0.099048 1.44405 -0.101232 1.01567 0.3291L0.669869 0.67404C0.461357 0.879888 0.347525 1.15962 0.347525 1.45295C0.347525 1.74766 0.462077 2.02524 0.667709 2.2318L4.38647 5.97692L0.671285 9.72349C0.242909 10.1538 0.242909 10.8459 0.669869 11.2791L1.01499 11.6269C1.21922 11.8363 1.49601 11.9504 1.78775 11.9504C2.07809 11.9504 2.3556 11.8334 2.55983 11.6276L6.275 7.8803L9.99088 11.6233C10.2015 11.8377 10.4819 11.946 10.763 11.946C11.0412 11.946 11.3201 11.8392 11.5329 11.6254L11.878 11.2784C12.0872 11.0739 12.2004 10.7942 12.2004 10.5002C12.2018 10.2061 12.0872 9.9286 11.8816 9.72136H11.8802Z" fill="#696A93"/>
</svg>
