<svg width="14" height="14" viewBox="0 0 14 14" fill="none" xmlns="http://www.w3.org/2000/svg">
<path fill-rule="evenodd" clip-rule="evenodd" d="M13.5486 12.1914L12.4808 13.2648C12.0074 13.7406 11.3797 13.9994 10.7237 13.9994C10.6207 13.9994 10.5178 13.9927 10.4131 13.9794C8.18608 13.7022 5.73315 12.3617 3.68378 10.3015C1.63443 8.24316 0.302512 5.77734 0.026824 3.53861C-0.067844 2.76734 0.191226 2.01109 0.73927 1.46017L1.80713 0.386736C2.19575 -0.003976 2.82849 -0.003976 3.21546 0.386736L5.56375 2.74729C5.75142 2.93594 5.85605 3.18802 5.85605 3.45517C5.85605 3.72226 5.75309 3.97435 5.56375 4.163L4.27169 5.46182L8.49995 9.71222L9.79201 8.41341C10.1806 8.02277 10.8117 8.02277 11.2003 8.41341L13.5486 10.774C13.9372 11.1647 13.9372 11.8008 13.5486 12.1914Z" fill="#696A93"/>
</svg>
