<svg id="e7e5ffb8-822a-47ab-b245-4ff288a47bda" data-name="a091e384-477a-4f22-9b1f-158ed0405088" xmlns="http://www.w3.org/2000/svg" width="346.93" height="443.57" viewBox="0 0 346.93 443.57">
  <defs>
    <style>
      .logo-icon {
        fill: #fff;
      }
    </style>
  </defs>
  <title>logo-icon</title>
  <path class="logo-icon" d="M173.52,34.86l82,40v.07l-5.09,23.68,21.64,10.86,39.39,19.76L271.51,318.45l-98,83.93-98-83.93L35.61,129.21,75,109.45,96.64,98.59,91.52,74.91v0l82-40m0-34.81L55.81,57.47l5.16,24L0,112.06,47,335.3,173.52,443.57,300,335.3l47-223.24L286,81.49l5.16-24L173.52,0Z" transform="translate(-0.03)"/>
  <path class="logo-icon" d="M254.69,169.94c0-22.33-11.09-42.56-31.24-56.25-30.06-20.43-64.79-24.75-103.37-9.47l10.35,146.43c-7.14,3.3-14.12,6.51-20.67,9.75l8.52,41.45q7.8-3.27,15.3-6.59l2.68,37.86,37.33,31.94L173.37,276c29-15.61,51.58-32.05,64.06-49.93C255.51,200.12,254.69,181.73,254.69,169.94ZM202.91,202c-7.55,10.16-17.72,19-29.65,26.53L173,138.76c10.17,1.54,19.5,4.8,26.76,9.73a30,30,0,0,1,12.8,21.45A49.62,49.62,0,0,1,202.91,202Z" transform="translate(-0.03)"/>
</svg>
