<svg xmlns="http://www.w3.org/2000/svg" width="145" height="186" stroke="#000" stroke-linecap="round" stroke-linejoin="round" fill="#fff" fill-rule="evenodd"><path d="M72.4339 0h.0733c.5786.3688 1.2063.6402 1.8085.9354l20.9545 10.2242 26.3546 12.8698-2.153 10.0155 25.4448 12.7473-3.8758 18.4558q-7.0749 33.5038-14.125 67.0082l-1.636 7.6527c-.3572.5537-.9724.8855-1.44 1.3407l-49.3635 42.2403-2.0552 1.7099-51.9717-44.4792c-.2954-.283-.7141-.4797-.8614-.8855L1.3655 53.3999 0 46.8043l11.4059-5.7338 14.0145-7.0256L23.292 24.018Q44.5162 13.6579 65.7405 3.2978L72.4339 0zm-.2591 14.7403L38.2529 31.3012l2.1166 9.9052-16.5858 8.3173-8.8957 4.4788q8.256 39.1508 16.4994 78.3027c.0739.2457.0739.5409.259.7374l40.7747 34.9192c.8249-.6149 1.5754-1.3287 2.3752-1.993l38.3884-32.8522c.2336-.1474.246-.4426.3074-.6765l16.512-78.4376-25.4572-12.7961 2.1285-9.9052L73.32 15.011c-.3571-.123-.7509-.5171-1.1452-.2707zm-4.8967 25.0015c5.094-.1965 10.237.5414 15.0601 2.2023 4.6137 1.5876 8.9573 3.9373 12.8337 6.8779 3.7894 2.9659 6.9514 6.7919 8.895 11.2089.9724 2.166 1.6244 4.4664 1.9938 6.8169.3813 2.399.3323 4.8473.2826 7.2716-.0738 3.8633-.8114 7.7273-2.2634 11.3194-1.1812 3.0391-2.7929 5.8941-4.627 8.5764-3.0508 4.4907-7.1117 8.1821-11.4052 11.4544-4.9213 3.7041-10.2122 6.8783-15.6138 9.7938l.0122 11.1109-.0122 10.5566c.0981 3.4703.0242 6.9521.049 10.422-.0248 1.6975.0371 3.3958.0123 5.1058L57.14 139.3553c-.16-.1227-.296-.283-.2831-.4798l-1.1075-15.5274-6.3609 2.7187-2.2391-10.7657c-.4192-2.203-.9479-4.3807-1.3174-6.5957l8.6006-4.0474-3.9864-56.5122c-.0854-1.5385-.2583-3.076-.2947-4.6263 5.4505-2.1537 11.2457-3.5682 17.1266-3.7777zm4.9837 18.259c-.0249.9722 0 1.9445.0248 2.9285l.0243 18.0868.0491 7.9114v8.4528c4.4909-2.7921 8.6128-6.2498 11.8851-10.4092 1.6734-2.1158 2.9658-4.5273 3.7041-7.124.6767-2.387 1.0334-4.8968.7621-7.3697-.3318-2.276-1.3651-4.4413-2.8418-6.2016-1.6493-1.9806-3.9374-3.2724-6.2747-4.2809-2.3374-.9723-4.8114-1.637-7.333-1.9941z" stroke="none" fill="#ff8200"/></svg>