<svg width="20" height="21" viewBox="0 0 20 21" fill="none" xmlns="http://www.w3.org/2000/svg">
<g filter="url(#filter0_i_1086_14723)">
<path fill-rule="evenodd" clip-rule="evenodd" d="M8.52792 0.00756836C7.98563 0.00756836 7.55423 0.453271 7.55423 1.00684V2.38087C6.30379 2.7726 5.18031 3.45719 4.25745 4.35594L3.07673 3.68458C2.60342 3.41432 2.01507 3.58395 1.75033 4.0671L0.308933 6.68242C0.0441934 7.16551 0.219 7.77829 0.692287 8.04856L1.86534 8.71998C1.74514 9.2946 1.68135 9.88863 1.68135 10.4999C1.68135 11.1112 1.74514 11.7052 1.86534 12.2798L0.692287 12.9512C0.219 13.2215 0.0441934 13.8343 0.308933 14.3174L1.75033 16.9327C2.01507 17.4159 2.60342 17.5855 3.07673 17.3152L4.25745 16.6439C5.18031 17.5426 6.30379 18.2273 7.55423 18.619V19.993C7.55423 20.5466 7.98563 20.9922 8.52792 20.9922H11.4721C12.0143 20.9922 12.4458 20.5466 12.4458 19.993V18.619C13.6962 18.2273 14.8197 17.5426 15.7426 16.6439L16.9233 17.3152C17.3966 17.5855 17.9849 17.4159 18.2496 16.9327L19.691 14.3174C19.9558 13.8343 19.781 13.2215 19.3077 12.9512L18.1347 12.2798C18.2548 11.7052 18.3187 11.1112 18.3187 10.4999C18.3187 9.88863 18.2548 9.2946 18.1347 8.71998L19.3077 8.04856C19.781 7.77829 19.9558 7.16551 19.691 6.68242L18.2496 4.0671C17.9849 3.58395 17.3966 3.41432 16.9233 3.68458L15.7426 4.35594C14.8197 3.45719 13.6962 2.7726 12.4458 2.38087V1.00684C12.4458 0.453271 12.0143 0.00756836 11.4721 0.00756836H8.52792ZM10 5.50355C12.71 5.50355 14.9069 7.74044 14.9069 10.4999C14.9069 13.2593 12.71 15.4963 10 15.4963C7.29001 15.4963 5.09313 13.2593 5.09313 10.4999C5.09313 7.74044 7.29001 5.50355 10 5.50355Z" fill="#FF9939"/>
</g>
<defs>
<filter id="filter0_i_1086_14723" x="0.185181" y="0.00756836" width="19.6296" height="20.9846" filterUnits="userSpaceOnUse" color-interpolation-filters="sRGB">
<feFlood flood-opacity="0" result="BackgroundImageFix"/>
<feBlend mode="normal" in="SourceGraphic" in2="BackgroundImageFix" result="shape"/>
<feColorMatrix in="SourceAlpha" type="matrix" values="0 0 0 0 0 0 0 0 0 0 0 0 0 0 0 0 0 0 127 0" result="hardAlpha"/>
<feOffset/>
<feGaussianBlur stdDeviation="1"/>
<feComposite in2="hardAlpha" operator="arithmetic" k2="-1" k3="1"/>
<feColorMatrix type="matrix" values="0 0 0 0 0 0 0 0 0 0 0 0 0 0 0 0 0 0 0.35 0"/>
<feBlend mode="normal" in2="shape" result="effect1_innerShadow_1086_14723"/>
</filter>
</defs>
</svg>
