<svg width="12" height="12" viewBox="0 0 12 12" fill="none" xmlns="http://www.w3.org/2000/svg">
<path fill-rule="evenodd" clip-rule="evenodd" d="M11.8499 4.36385C11.8471 4.36239 11.8443 4.36093 11.8415 4.36093L8.20166 3.80514C8.05021 3.78163 7.91983 3.68311 7.85253 3.53903L6.26955 0.174927C6.21769 0.0661464 6.11672 0 6.00034 0C5.88399 0 5.78303 0.0661464 5.73115 0.176395L4.14817 3.53903C4.08087 3.68311 3.95049 3.78163 3.79905 3.80514L0.286797 4.34034C0.162008 4.35948 0.0456306 4.44476 0.0119718 4.57269C-0.0188548 4.68591 0.0105739 4.80059 0.0919068 4.88289L2.65354 7.50155C2.76289 7.61326 2.81337 7.77356 2.78675 7.93234L2.18244 11.6302C2.1628 11.7507 2.20766 11.8669 2.30162 11.939C2.39555 12.011 2.51473 12.0198 2.61848 11.9625L5.78442 10.2172C5.91904 10.1422 6.08027 10.1422 6.21628 10.2172L9.38222 11.9625C9.48598 12.0198 9.60373 12.011 9.69909 11.939C9.79443 11.8669 9.83791 11.7523 9.81828 11.6302L9.21396 7.9338C9.18874 7.77647 9.23779 7.61479 9.34718 7.50302L11.9088 4.88434C12.042 4.74616 12.035 4.51971 11.8499 4.36385Z" fill="#959595"/>
</svg>
