<svg width="12" height="12" viewBox="0 0 12 12" fill="none" xmlns="http://www.w3.org/2000/svg">
<path fill-rule="evenodd" clip-rule="evenodd" d="M3.86891 0.0164795C2.98989 0.0164795 2.26344 0.742924 2.26344 1.62203C2.26344 1.80958 2.30202 1.98762 2.3626 2.15546H0.661072C0.364264 2.15434 0.123388 2.39524 0.124516 2.69199V4.29134C0.123388 4.58808 0.364264 4.82898 0.661072 4.82787H11.3494C11.6462 4.82898 11.8871 4.58808 11.8859 4.29134V2.69199C11.8871 2.39524 11.6462 2.15434 11.3494 2.15546H9.64786C9.7085 1.98756 9.74807 1.80965 9.74807 1.62203C9.74807 0.742924 9.0206 0.0164795 8.14155 0.0164795H7.07678C6.66608 0.0164795 6.29242 0.179464 6.00681 0.438219C5.72206 0.179272 5.34881 0.0164795 4.93787 0.0164795H3.86891ZM3.86891 1.08544H4.93787C5.24322 1.08544 5.47024 1.31664 5.47024 1.62203V2.15546H3.86891C3.5636 2.15546 3.33238 1.92736 3.33238 1.62203C3.33238 1.31664 3.5636 1.08544 3.86891 1.08544ZM8.14161 1.08547H7.07684C6.77152 1.08547 6.54027 1.31667 6.54027 1.62206V2.15548H8.14161C8.44693 2.15548 8.67817 1.92739 8.67817 1.62206C8.67817 1.31667 8.44693 1.08547 8.14161 1.08547Z" fill="#959595"/>
<path fill-rule="evenodd" clip-rule="evenodd" d="M1.19322 5.89682V11.2417C1.19209 11.5389 1.43363 11.78 1.73081 11.7783H4.40108V5.89682H1.19322Z" fill="#959595"/>
<path fill-rule="evenodd" clip-rule="evenodd" d="M5.47001 5.89682V11.7783H6.53998V5.89682H5.47001Z" fill="#959595"/>
<path fill-rule="evenodd" clip-rule="evenodd" d="M7.60895 5.89682V11.7783H10.2802C10.577 11.7794 10.8179 11.5385 10.8168 11.2417V5.89682H7.60895Z" fill="#959595"/>
</svg>
