<svg width="107" height="29" viewBox="0 0 107 29" fill="none" xmlns="http://www.w3.org/2000/svg">
<path d="M31.382 19.168C30.598 19.168 29.8467 19.0653 29.128 18.86C28.4093 18.6453 27.8307 18.37 27.392 18.034L28.162 16.326C28.582 16.6247 29.0767 16.872 29.646 17.068C30.2247 17.2547 30.808 17.348 31.396 17.348C31.844 17.348 32.2033 17.306 32.474 17.222C32.754 17.1287 32.9593 17.0027 33.09 16.844C33.2207 16.6853 33.286 16.5033 33.286 16.298C33.286 16.0367 33.1833 15.8313 32.978 15.682C32.7727 15.5233 32.502 15.3973 32.166 15.304C31.83 15.2013 31.4567 15.108 31.046 15.024C30.6447 14.9307 30.2387 14.8187 29.828 14.688C29.4267 14.5573 29.058 14.3893 28.722 14.184C28.386 13.9787 28.1107 13.708 27.896 13.372C27.6907 13.036 27.588 12.6067 27.588 12.084C27.588 11.524 27.7373 11.0153 28.036 10.558C28.344 10.0913 28.8013 9.72267 29.408 9.452C30.024 9.172 30.794 9.032 31.718 9.032C32.334 9.032 32.9407 9.10667 33.538 9.256C34.1353 9.396 34.6627 9.61067 35.12 9.9L34.42 11.622C33.9627 11.3607 33.5053 11.1693 33.048 11.048C32.5907 10.9173 32.1427 10.852 31.704 10.852C31.2653 10.852 30.906 10.9033 30.626 11.006C30.346 11.1087 30.1453 11.244 30.024 11.412C29.9027 11.5707 29.842 11.7573 29.842 11.972C29.842 12.224 29.9447 12.4293 30.15 12.588C30.3553 12.7373 30.626 12.8587 30.962 12.952C31.298 13.0453 31.6667 13.1387 32.068 13.232C32.4787 13.3253 32.8847 13.4327 33.286 13.554C33.6967 13.6753 34.07 13.8387 34.406 14.044C34.742 14.2493 35.0127 14.52 35.218 14.856C35.4327 15.192 35.54 15.6167 35.54 16.13C35.54 16.6807 35.386 17.1847 35.078 17.642C34.77 18.0993 34.308 18.468 33.692 18.748C33.0853 19.028 32.3153 19.168 31.382 19.168ZM40.6737 19.112C39.8151 19.112 39.0591 18.944 38.4057 18.608C37.7617 18.272 37.2624 17.8147 36.9077 17.236C36.5531 16.648 36.3757 15.9807 36.3757 15.234C36.3757 14.478 36.5484 13.8107 36.8937 13.232C37.2484 12.644 37.7291 12.1867 38.3357 11.86C38.9424 11.524 39.6284 11.356 40.3937 11.356C41.1311 11.356 41.7937 11.5147 42.3817 11.832C42.9791 12.14 43.4504 12.588 43.7957 13.176C44.1411 13.7547 44.3137 14.45 44.3137 15.262C44.3137 15.346 44.3091 15.444 44.2997 15.556C44.2904 15.6587 44.2811 15.7567 44.2717 15.85H38.1537V14.576H43.1237L42.2837 14.954C42.2837 14.562 42.2044 14.2213 42.0457 13.932C41.8871 13.6427 41.6677 13.4187 41.3877 13.26C41.1077 13.092 40.7811 13.008 40.4077 13.008C40.0344 13.008 39.7031 13.092 39.4137 13.26C39.1337 13.4187 38.9144 13.6473 38.7557 13.946C38.5971 14.2353 38.5177 14.5807 38.5177 14.982V15.318C38.5177 15.7287 38.6064 16.0927 38.7837 16.41C38.9704 16.718 39.2271 16.956 39.5537 17.124C39.8897 17.2827 40.2817 17.362 40.7297 17.362C41.1311 17.362 41.4811 17.3013 41.7797 17.18C42.0877 17.0587 42.3677 16.8767 42.6197 16.634L43.7817 17.894C43.4364 18.286 43.0024 18.5893 42.4797 18.804C41.9571 19.0093 41.3551 19.112 40.6737 19.112ZM48.8478 19.112C47.9611 19.112 47.2704 18.888 46.7758 18.44C46.2811 17.9827 46.0338 17.306 46.0338 16.41V9.802H48.2178V16.382C48.2178 16.6993 48.3018 16.9467 48.4698 17.124C48.6378 17.292 48.8664 17.376 49.1558 17.376C49.5011 17.376 49.7951 17.2827 50.0378 17.096L50.6258 18.636C50.4018 18.7947 50.1311 18.916 49.8138 19C49.5058 19.0747 49.1838 19.112 48.8478 19.112ZM44.8718 13.316V11.636H50.0938V13.316H44.8718ZM54.7677 19.112C53.881 19.112 53.1904 18.888 52.6957 18.44C52.201 17.9827 51.9537 17.306 51.9537 16.41V9.802H54.1377V16.382C54.1377 16.6993 54.2217 16.9467 54.3897 17.124C54.5577 17.292 54.7864 17.376 55.0757 17.376C55.421 17.376 55.715 17.2827 55.9577 17.096L56.5457 18.636C56.3217 18.7947 56.051 18.916 55.7337 19C55.4257 19.0747 55.1037 19.112 54.7677 19.112ZM50.7917 13.316V11.636H56.0137V13.316H50.7917ZM57.7717 19V11.468H59.9557V19H57.7717ZM58.8637 10.418C58.4623 10.418 58.1357 10.3013 57.8837 10.068C57.6317 9.83467 57.5057 9.54533 57.5057 9.2C57.5057 8.85467 57.6317 8.56533 57.8837 8.332C58.1357 8.09867 58.4623 7.982 58.8637 7.982C59.265 7.982 59.5917 8.094 59.8437 8.318C60.0957 8.53267 60.2217 8.81267 60.2217 9.158C60.2217 9.522 60.0957 9.82533 59.8437 10.068C59.601 10.3013 59.2743 10.418 58.8637 10.418ZM66.5606 11.356C67.1579 11.356 67.6899 11.4773 68.1566 11.72C68.6326 11.9533 69.0059 12.3173 69.2766 12.812C69.5473 13.2973 69.6826 13.9227 69.6826 14.688V19H67.4986V15.024C67.4986 14.4173 67.3633 13.9693 67.0926 13.68C66.8313 13.3907 66.4579 13.246 65.9726 13.246C65.6273 13.246 65.3146 13.3207 65.0346 13.47C64.7639 13.61 64.5493 13.8293 64.3906 14.128C64.2413 14.4267 64.1666 14.8093 64.1666 15.276V19H61.9826V11.468H64.0686V13.554L63.6766 12.924C63.9473 12.42 64.3346 12.0327 64.8386 11.762C65.3426 11.4913 65.9166 11.356 66.5606 11.356ZM75.259 21.828C74.5497 21.828 73.8637 21.7393 73.201 21.562C72.5477 21.394 72.0017 21.1373 71.563 20.792L72.431 19.224C72.7483 19.4853 73.1497 19.6907 73.635 19.84C74.1297 19.9987 74.615 20.078 75.091 20.078C75.8657 20.078 76.4257 19.9053 76.771 19.56C77.1257 19.2147 77.303 18.7013 77.303 18.02V16.886L77.443 14.996L77.415 13.092V11.468H79.487V17.74C79.487 19.14 79.123 20.1713 78.395 20.834C77.667 21.4967 76.6217 21.828 75.259 21.828ZM74.923 18.636C74.223 18.636 73.5883 18.4867 73.019 18.188C72.459 17.88 72.0063 17.4553 71.661 16.914C71.325 16.3633 71.157 15.724 71.157 14.996C71.157 14.2587 71.325 13.6193 71.661 13.078C72.0063 12.5273 72.459 12.1027 73.019 11.804C73.5883 11.5053 74.223 11.356 74.923 11.356C75.5577 11.356 76.1177 11.4867 76.603 11.748C77.0883 12 77.4663 12.3967 77.737 12.938C78.0077 13.47 78.143 14.156 78.143 14.996C78.143 15.8267 78.0077 16.5127 77.737 17.054C77.4663 17.586 77.0883 17.9827 76.603 18.244C76.1177 18.5053 75.5577 18.636 74.923 18.636ZM75.357 16.844C75.7397 16.844 76.0803 16.7693 76.379 16.62C76.6777 16.4613 76.911 16.242 77.079 15.962C77.247 15.682 77.331 15.36 77.331 14.996C77.331 14.6227 77.247 14.3007 77.079 14.03C76.911 13.75 76.6777 13.5353 76.379 13.386C76.0803 13.2273 75.7397 13.148 75.357 13.148C74.9743 13.148 74.6337 13.2273 74.335 13.386C74.0363 13.5353 73.7983 13.75 73.621 14.03C73.453 14.3007 73.369 14.6227 73.369 14.996C73.369 15.36 73.453 15.682 73.621 15.962C73.7983 16.242 74.0363 16.4613 74.335 16.62C74.6337 16.7693 74.9743 16.844 75.357 16.844ZM84.0537 19.112C83.4097 19.112 82.7891 19.0373 82.1917 18.888C81.6037 18.7293 81.1371 18.5333 80.7917 18.3L81.5197 16.732C81.8651 16.9467 82.2711 17.124 82.7377 17.264C83.2137 17.3947 83.6804 17.46 84.1377 17.46C84.6417 17.46 84.9964 17.3993 85.2017 17.278C85.4164 17.1567 85.5237 16.9887 85.5237 16.774C85.5237 16.5967 85.4397 16.466 85.2717 16.382C85.1131 16.2887 84.8984 16.2187 84.6277 16.172C84.3571 16.1253 84.0584 16.0787 83.7317 16.032C83.4144 15.9853 83.0924 15.9247 82.7657 15.85C82.4391 15.766 82.1404 15.6447 81.8697 15.486C81.5991 15.3273 81.3797 15.1127 81.2117 14.842C81.0531 14.5713 80.9737 14.2213 80.9737 13.792C80.9737 13.316 81.1091 12.896 81.3797 12.532C81.6597 12.168 82.0611 11.8833 82.5837 11.678C83.1064 11.4633 83.7317 11.356 84.4597 11.356C84.9731 11.356 85.4957 11.412 86.0277 11.524C86.5597 11.636 87.0031 11.7993 87.3577 12.014L86.6297 13.568C86.2657 13.3533 85.8971 13.2087 85.5237 13.134C85.1597 13.05 84.8051 13.008 84.4597 13.008C83.9744 13.008 83.6197 13.0733 83.3957 13.204C83.1717 13.3347 83.0597 13.5027 83.0597 13.708C83.0597 13.8947 83.1391 14.0347 83.2977 14.128C83.4657 14.2213 83.6851 14.296 83.9557 14.352C84.2264 14.408 84.5204 14.4593 84.8377 14.506C85.1644 14.5433 85.4911 14.604 85.8177 14.688C86.1444 14.772 86.4384 14.8933 86.6997 15.052C86.9704 15.2013 87.1897 15.4113 87.3577 15.682C87.5257 15.9433 87.6097 16.2887 87.6097 16.718C87.6097 17.1847 87.4697 17.6 87.1897 17.964C86.9097 18.3187 86.5037 18.5987 85.9717 18.804C85.4491 19.0093 84.8097 19.112 84.0537 19.112Z" fill="#696A93"/>
<g filter="url(#filter0_d_808_7625)">
<path fill-rule="evenodd" clip-rule="evenodd" d="M14.177 6.00002C18.693 6.00002 22.3539 9.67129 22.3539 14.2C22.3539 18.7287 18.693 22.4 14.177 22.4C9.66095 22.4 6 18.7287 6 14.2C6 9.67129 9.66095 6.00002 14.177 6.00002Z" fill="url(#paint0_linear_808_7625)"/>
</g>
<path fill-rule="evenodd" clip-rule="evenodd" d="M13.7231 14.5151L16.6792 11.6768C17.3939 10.9514 16.3219 9.91069 15.6073 10.6045L12.0989 14.0106C11.8065 14.2944 11.8065 14.7674 12.0989 15.0513L15.6073 18.4573C16.3219 19.1511 17.3939 18.0788 16.6792 17.385L13.7231 14.5151Z" fill="white"/>
<defs>
<filter id="filter0_d_808_7625" x="0" y="0" width="28.3535" height="28.4" filterUnits="userSpaceOnUse" color-interpolation-filters="sRGB">
<feFlood flood-opacity="0" result="BackgroundImageFix"/>
<feColorMatrix in="SourceAlpha" type="matrix" values="0 0 0 0 0 0 0 0 0 0 0 0 0 0 0 0 0 0 127 0" result="hardAlpha"/>
<feOffset/>
<feGaussianBlur stdDeviation="3"/>
<feComposite in2="hardAlpha" operator="out"/>
<feColorMatrix type="matrix" values="0 0 0 0 0.25098 0 0 0 0 0.25098 0 0 0 0 0.25098 0 0 0 0.25 0"/>
<feBlend mode="normal" in2="BackgroundImageFix" result="effect1_dropShadow_808_7625"/>
<feBlend mode="normal" in="SourceGraphic" in2="effect1_dropShadow_808_7625" result="shape"/>
</filter>
<linearGradient id="paint0_linear_808_7625" x1="6" y1="14.2" x2="22.3539" y2="14.2" gradientUnits="userSpaceOnUse">
<stop stop-color="#FF7A4A"/>
<stop offset="1" stop-color="#FFB16B"/>
</linearGradient>
</defs>
</svg>
