<svg width="12" height="12" viewBox="0 0 12 12" fill="none" xmlns="http://www.w3.org/2000/svg">
<path fill-rule="evenodd" clip-rule="evenodd" d="M11.6145 9.72136L7.89721 5.97692L11.6117 2.23036C12.0401 1.80001 12.0401 1.10795 11.6131 0.676224L11.268 0.32766C11.0652 0.118224 10.7877 0.004224 10.4959 0.004224C10.4945 0.004224 10.4945 0.004224 10.4945 0.004224C10.2027 0.004224 9.92879 0.119664 9.72384 0.326964L6.00797 4.07492L2.29064 0.331236C1.8644 -0.099048 1.17842 -0.101232 0.750048 0.3291L0.404244 0.67404C0.195732 0.879888 0.0819 1.15962 0.0819 1.45295C0.0819 1.74766 0.196452 2.02524 0.402084 2.2318L4.12085 5.97692L0.40566 9.72349C-0.022716 10.1538 -0.022716 10.8459 0.404244 11.2791L0.749364 11.6269C0.953592 11.8363 1.23038 11.9504 1.52213 11.9504C1.81247 11.9504 2.08998 11.8334 2.29421 11.6276L6.00937 7.8803L9.72526 11.6233C9.9359 11.8377 10.2163 11.946 10.4973 11.946C10.7756 11.946 11.0545 11.8392 11.2673 11.6254L11.6124 11.2784C11.8216 11.0739 11.9347 10.7942 11.9347 10.5002C11.9362 10.2061 11.8216 9.9286 11.6159 9.72136H11.6145Z" fill="#696A93"/>
</svg>
