<svg width="15" height="11" viewBox="0 0 15 11" fill="none" xmlns="http://www.w3.org/2000/svg">
<path fill-rule="evenodd" clip-rule="evenodd" d="M14.6235 0.61535L8.42549 6.46901C7.92401 6.94301 7.07617 6.94301 6.57448 6.46918L0.376314 0.615174C0.682665 0.240526 1.14782 0 1.66666 0H13.3333C13.8522 0 14.3173 0.240526 14.6235 0.61535ZM10.7538 5.41669L14.9803 1.42516C14.992 1.50418 15 1.58436 15 1.66665V9.16669C15 9.24903 14.9918 9.3295 14.9802 9.40853L10.7538 5.41669ZM0.0196534 1.42485C0.00816491 1.50383 0 1.58436 0 1.66665V9.16669C0 9.24903 0.00816491 9.3295 0.0196534 9.40853L4.24598 5.41634L0.0196534 1.42485ZM7.49998 7.66035C8.04233 7.66035 8.58467 7.46536 8.99767 7.07501L10.147 5.98968L14.6235 10.2182C14.3173 10.5929 13.8522 10.8333 13.3333 10.8333H1.66666C1.14782 10.8333 0.682665 10.5929 0.376481 10.2182L4.85299 5.98951L6.00232 7.07501C6.41516 7.46536 6.9575 7.66035 7.49998 7.66035Z" fill="#696A93"/>
</svg>
