<svg width="206" height="205" viewBox="0 0 206 205" fill="none" xmlns="http://www.w3.org/2000/svg">
<path fill-rule="evenodd" clip-rule="evenodd" d="M127.478 34.215L169.184 76.1212L63.6215 182.183L21.9396 140.293L127.478 34.215ZM200.828 24.1043L182.229 5.41788C175.064 -1.78146 163.42 -1.8095 156.221 5.35542C156.2 5.37624 156.179 5.39706 156.159 5.41788L138.345 23.32L180.047 65.2255L200.828 44.345C206.405 38.7509 206.405 29.6983 200.828 24.1043ZM0.117553 199.196C-0.460406 201.76 1.14897 204.306 3.71166 204.883C4.41906 205.043 5.15388 205.039 5.85963 204.871L52.3303 193.547L10.6482 151.641L0.117553 199.196Z" fill="#FF9939"/>
</svg>
