<svg width="29" height="29" viewBox="0 0 29 29" fill="none" xmlns="http://www.w3.org/2000/svg">
<g filter="url(#filter0_d_83_2)">
<path fill-rule="evenodd" clip-rule="evenodd" d="M14.2 6.00002C18.7287 6.00002 22.4 9.67129 22.4 14.2C22.4 18.7287 18.7287 22.4 14.2 22.4C9.67127 22.4 6 18.7287 6 14.2C6 9.67129 9.67127 6.00002 14.2 6.00002Z" fill="url(#paint0_linear_83_2)"/>
</g>
<path fill-rule="evenodd" clip-rule="evenodd" d="M13.7445 14.5154L16.7089 11.677C17.4256 10.9517 16.3506 9.91093 15.6339 10.6048L12.1157 14.0108C11.8225 14.2946 11.8225 14.7677 12.1157 15.0515L15.6339 18.4575C16.3506 19.1513 17.4256 18.0791 16.7089 17.3852L13.7445 14.5154Z" fill="white"/>
<defs>
<filter id="filter0_d_83_2" x="0" y="0" width="28.3999" height="28.3999" filterUnits="userSpaceOnUse" color-interpolation-filters="sRGB">
<feFlood flood-opacity="0" result="BackgroundImageFix"/>
<feColorMatrix in="SourceAlpha" type="matrix" values="0 0 0 0 0 0 0 0 0 0 0 0 0 0 0 0 0 0 127 0" result="hardAlpha"/>
<feOffset/>
<feGaussianBlur stdDeviation="3"/>
<feComposite in2="hardAlpha" operator="out"/>
<feColorMatrix type="matrix" values="0 0 0 0 0.25098 0 0 0 0 0.25098 0 0 0 0 0.25098 0 0 0 0.25 0"/>
<feBlend mode="normal" in2="BackgroundImageFix" result="effect1_dropShadow_83_2"/>
<feBlend mode="normal" in="SourceGraphic" in2="effect1_dropShadow_83_2" result="shape"/>
</filter>
<linearGradient id="paint0_linear_83_2" x1="6" y1="14.2" x2="22.4" y2="14.2" gradientUnits="userSpaceOnUse">
<stop stop-color="#FF7A4A"/>
<stop offset="1" stop-color="#FFB16B"/>
</linearGradient>
</defs>
</svg>
