<svg width="20" height="20" viewBox="0 0 20 20" fill="none" xmlns="http://www.w3.org/2000/svg">
<path d="M17.8281 8.36529C17.938 8.89339 17.9959 9.43967 17.9959 10C17.9959 14.4157 14.4165 17.995 10.0008 17.995C5.58512 17.995 2.00579 14.4157 2.00579 10C2.00579 5.5843 5.58512 2.00496 10.0008 2.00496C11.6298 2.00496 13.1446 2.49256 14.4091 3.32975L15.8397 1.88182C14.1959 0.697521 12.1793 0 10 0C4.47686 0 0 4.47686 0 10C0 15.5231 4.47686 20 10 20C15.5231 20 20 15.5231 20 10C20 8.85455 19.8066 7.75372 19.4521 6.72893L17.8281 8.36529Z" fill="#04BA00"/>
<path d="M5.80603 8.88591L4.37793 10.314L7.22173 13.1578L7.20851 13.1719L8.63661 14.6L8.64983 14.5867L8.66388 14.6L10.092 13.1719L10.0788 13.1578L20.0002 3.23633L18.5721 1.80823L8.64983 11.7297L5.80603 8.88591Z" fill="#04BA00"/>
</svg>
