<svg width="26" height="21" viewBox="0 0 26 21" fill="none" xmlns="http://www.w3.org/2000/svg">
<g filter="url(#filter0_i_1086_14614)">
<path fill-rule="evenodd" clip-rule="evenodd" d="M25.2081 2.58336V6.17698H16.5615C15.144 6.17698 13.9745 7.35112 13.9745 8.77435V12.0121C13.9745 13.4354 15.144 14.6095 16.5615 14.6095H25.2081V18.4166C25.2081 19.3417 24.4639 20.1245 23.5071 20.1245H2.49285C1.5715 20.1245 0.79187 19.3773 0.79187 18.4166V2.58336C0.79187 1.65827 1.53608 0.875488 2.49285 0.875488H23.5071C24.4639 0.875488 25.2081 1.62266 25.2081 2.58336ZM17.3056 7.60021C16.526 7.60021 15.8881 8.24065 15.8881 9.02343V11.7631C15.8881 12.5459 16.526 13.1863 17.3056 13.1863H25.2081V7.60021H17.3056ZM19.7862 11.3006C19.5736 11.5496 19.2192 11.7275 18.8294 11.7275C18.1207 11.7275 17.5891 11.1582 17.5891 10.4822C17.5891 9.77056 18.1561 9.23687 18.8294 9.23687C19.1483 9.23687 19.4673 9.37922 19.6799 9.59264C19.9634 9.77056 20.1051 10.1264 20.1051 10.4822C20.1051 10.8024 19.9634 11.087 19.7862 11.3006Z" fill="#FF9939"/>
</g>
<defs>
<filter id="filter0_i_1086_14614" x="0.79187" y="0.875488" width="24.4162" height="19.249" filterUnits="userSpaceOnUse" color-interpolation-filters="sRGB">
<feFlood flood-opacity="0" result="BackgroundImageFix"/>
<feBlend mode="normal" in="SourceGraphic" in2="BackgroundImageFix" result="shape"/>
<feColorMatrix in="SourceAlpha" type="matrix" values="0 0 0 0 0 0 0 0 0 0 0 0 0 0 0 0 0 0 127 0" result="hardAlpha"/>
<feOffset/>
<feGaussianBlur stdDeviation="1"/>
<feComposite in2="hardAlpha" operator="arithmetic" k2="-1" k3="1"/>
<feColorMatrix type="matrix" values="0 0 0 0 0 0 0 0 0 0 0 0 0 0 0 0 0 0 0.35 0"/>
<feBlend mode="normal" in2="shape" result="effect1_innerShadow_1086_14614"/>
</filter>
</defs>
</svg>
